<svg width="60" height="68" viewBox="0 0 60 68" fill="none" xmlns="http://www.w3.org/2000/svg">
<path d="M34.1253 22.0635C34.128 21.517 33.6872 21.0719 33.1408 21.0693H33.1357C32.5916 21.0693 32.1493 21.5091 32.1465 22.0538L32.144 22.5522C31.4439 22.0133 30.5915 21.7082 29.6427 21.7082C27.3092 21.7082 24.8954 23.727 24.8954 27.1053C24.8954 30.1865 26.9822 32.6933 29.5472 32.6933C30.6623 32.6933 31.6719 32.2233 32.4557 31.4319C32.6114 31.747 32.8156 32.0373 33.0641 32.2871C33.6158 32.8416 34.3266 33.1469 35.0657 33.1469C37.2046 33.1469 38.559 31.6579 39.1136 30.2643C39.9742 28.1003 40.1289 26.277 39.6153 24.3526C39.6125 24.3424 39.6096 24.3321 39.6065 24.322C38.8289 21.7454 37.089 19.6356 34.7075 18.3813C32.3263 17.1272 29.6017 16.8866 27.0352 17.7037C24.6033 18.4778 22.5801 20.1468 21.3383 22.4031C20.096 24.6601 19.7694 27.2621 20.4184 29.7299C20.9806 31.8675 22.1944 33.7117 23.9287 35.0628C25.5985 36.3638 27.6785 37.1124 29.7853 37.1707C29.7947 37.171 29.8039 37.1711 29.8131 37.1711C30.3468 37.1711 30.7867 36.7459 30.8017 36.209C30.8168 35.6627 30.3863 35.2078 29.8401 35.1927C26.3176 35.0954 23.2304 32.642 22.3321 29.2268C21.8128 27.252 22.0755 25.1675 23.0718 23.3573C24.0682 21.547 25.6888 20.2089 27.6355 19.5893C29.693 18.9343 31.877 19.1272 33.7854 20.1321C35.6887 21.1346 37.0807 22.8188 37.7067 24.8759C38.1262 26.4601 37.8732 28.0288 37.275 29.5331C37.0794 30.0247 36.4726 31.1683 35.0658 31.1683C34.7843 31.1683 34.5697 30.995 34.4669 30.8916C34.227 30.6503 34.0846 30.2952 34.0863 29.9416L34.1253 22.0635ZM29.5472 30.7145C28.2617 30.7145 26.8742 29.3345 26.8742 27.1053C26.8742 24.9655 28.2817 23.6869 29.6427 23.6869C31.0654 23.6869 32.0701 25.0086 32.1224 26.9205L32.1206 27.2822C32.0452 29.1927 30.9199 30.7145 29.5472 30.7145Z" fill="#008D66"/>
<path d="M60 63.3049V29.5501C60 28.4114 59.5357 27.3011 58.7261 26.5008L58.723 26.4974L58.7212 26.4957C58.7193 26.494 58.7178 26.492 58.7159 26.4903L54.8273 22.6738V20.4423C54.8273 19.8958 54.3844 19.4529 53.8379 19.4529C53.2914 19.4529 52.8485 19.8958 52.8485 20.4423V30.9637L34.871 48.9093L32.0435 47.3558C30.7643 46.6525 29.2363 46.6524 27.9567 47.3556L25.1292 48.9093L7.15162 30.9637V13.8842C7.15162 12.6113 8.1873 11.5756 9.46017 11.5756H50.54C51.8128 11.5756 52.8485 12.6113 52.8485 13.8842V16.2308C52.8485 16.7774 53.2914 17.2202 53.8379 17.2202C54.3844 17.2202 54.8273 16.7774 54.8273 16.2308V13.8842C54.8273 11.5201 52.904 9.59685 50.54 9.59685H41.5035L32.8778 1.13094C32.8685 1.12171 32.8588 1.11261 32.8491 1.1039C31.2249 -0.3679 28.7752 -0.368032 27.1509 1.1039C27.1412 1.11261 27.1317 1.12171 27.1223 1.13094L18.4965 9.59685H9.46004C7.09609 9.59685 5.17273 11.5201 5.17273 13.8842V22.6739L1.28408 26.4904C1.2825 26.492 1.28092 26.4937 1.27933 26.4954L1.27696 26.4975C1.27551 26.499 1.273 26.5019 1.273 26.5019C0.464084 27.3021 0 28.4121 0 29.5501V40.8404C0 41.3869 0.442978 41.8297 0.989379 41.8297C1.53578 41.8297 1.97876 41.3869 1.97876 40.8404V29.5501C1.97876 29.2736 2.03205 29.0012 2.12782 28.7449L23.3226 49.902L1.97889 61.6312V45.1522C1.97889 44.6057 1.53591 44.1628 0.98951 44.1628C0.44311 44.1628 0.000131845 44.6057 0.000131845 45.1522V63.3048C0.000131845 63.3101 0.000395713 63.3152 0.00052763 63.3205C0.00962991 65.6523 1.90897 67.5466 4.24298 67.5466H40.7703C41.3168 67.5466 41.7597 67.1037 41.7597 66.5572C41.7597 66.0107 41.3168 65.5678 40.7703 65.5678H4.24298C3.18342 65.5678 2.29417 64.8353 2.04854 63.8507L28.9096 49.0897C29.5924 48.7145 30.4076 48.7144 31.0904 49.0898L57.9515 63.8508C57.7058 64.8353 56.8164 65.5678 55.757 65.5678H45.0823C44.5358 65.5678 44.0929 66.0107 44.0929 66.5572C44.0929 67.1037 44.5358 67.5466 45.0823 67.5466H55.7572C58.091 67.5466 59.9905 65.6523 59.9996 63.3205C59.9997 63.3152 60 63.3101 60 63.3049ZM28.493 2.55828C29.3555 1.78894 30.6449 1.78881 31.5071 2.55828L38.6786 9.59685H21.3215L28.493 2.55828ZM5.17287 28.9884L3.38367 27.2024L5.17287 25.4464V28.9884ZM57.8722 28.7448C57.9679 29.0011 58.0212 29.2736 58.0212 29.5501V61.631L36.6773 49.902L57.8722 28.7448ZM56.6165 27.2024L54.8273 28.9884V25.4464L56.6165 27.2024Z" fill="#008D66"/>
</svg>
