<svg width="60" height="58" viewBox="0 0 60 58" fill="none" xmlns="http://www.w3.org/2000/svg">
<path d="M59.698 53.3986L53.3024 41.3822C52.8532 40.5452 52.0177 40.0455 51.0671 40.0455H38.6444C44.0385 33.2792 49.281 25.7014 49.281 19.1935C49.281 8.61011 40.6323 0 30.0014 0C19.3688 0 10.7186 8.61011 10.7186 19.1935C10.7186 25.6941 15.9635 33.2748 21.36 40.0455H8.93563C7.97996 40.0455 7.14359 40.5467 6.69875 41.385L0.306871 53.3948C-0.123559 54.1941 -0.10059 55.099 0.372027 55.8811C0.843824 56.6537 1.63461 57.0968 2.54152 57.0968H57.4614C58.3714 57.0968 59.162 56.6523 59.6299 55.8774C60.0983 55.1018 60.1233 54.1985 59.698 53.3986ZM51.0671 41.912C51.3248 41.912 51.5259 42.033 51.6471 42.2589L52.8257 44.4733H35.0342C35.7222 43.6396 36.4276 42.7845 37.1386 41.912H51.0671ZM30.0014 1.86641C39.5983 1.86641 47.4061 9.63933 47.4061 19.1934C47.4061 26.5435 39.3566 36.2962 33.4792 43.4175C32.2277 44.9336 31.035 46.3786 30.0015 47.6965C28.9688 46.3799 27.7775 44.936 26.5274 43.421C20.647 36.2945 12.5935 26.5345 12.5935 19.1935C12.5935 9.63933 20.4027 1.86641 30.0014 1.86641ZM8.93563 41.912H15.7714L14.9107 44.4733H7.17699L8.35613 42.2578C8.47602 42.0316 8.67652 41.912 8.93563 41.912ZM1.97633 54.9154C1.84965 54.7057 1.8439 54.4908 1.96144 54.2725L3.95012 50.5361H12.8716L11.2936 55.2302H2.54152C2.29402 55.2304 2.10324 55.123 1.97633 54.9154ZM13.2705 55.2304L15.0628 49.8991C15.1585 49.6145 15.1108 49.3013 14.9347 49.0577C14.7584 48.8141 14.4753 48.6697 14.1738 48.6697H4.94351L6.18348 46.3398H15.5856C15.9887 46.3398 16.3467 46.0832 16.4745 45.7026L17.7484 41.912H22.8654C23.6138 42.8306 24.3562 43.7304 25.0785 44.6058C26.5158 46.3476 27.8748 47.9946 28.9898 49.4455C29.189 49.8082 29.572 50.0399 30.0009 50.0401C30.4299 50.0401 30.8135 49.8084 31.0127 49.4457C31.7498 48.4864 32.5947 47.4408 33.4971 46.3398H53.8191L55.0591 48.6697H34.386C34.0022 48.6697 33.6572 48.9026 33.5151 49.2576C33.373 49.6125 33.4628 50.0179 33.7414 50.2805L38.9915 55.2304H33.5503L23.026 45.3077C22.7934 45.0884 22.4649 45.0025 22.1542 45.0798C21.8436 45.157 21.594 45.3868 21.4924 45.689L18.2854 55.2302L13.2705 55.2304ZM30.8238 55.2304H20.2626L22.8042 47.6691L30.8238 55.2304ZM58.023 54.9155C57.8969 55.1244 57.7079 55.2304 57.4612 55.2304H41.7182L36.7391 50.5362H56.0527L58.0412 54.2723C58.1563 54.4886 58.1502 54.705 58.023 54.9155ZM41.8469 19.1935C41.8469 12.6909 36.5331 7.40064 30.0013 7.40064C23.4695 7.40064 18.1556 12.6908 18.1556 19.1935C18.1556 25.6979 23.4695 30.9896 30.0013 30.9896C36.5331 30.9896 41.8469 25.6978 41.8469 19.1935ZM20.0306 19.1935C20.0306 13.72 24.5034 9.26717 30.0014 9.26717C35.4994 9.26717 39.9722 13.72 39.9722 19.1935C39.9722 24.6687 35.4994 29.1231 30.0014 29.1231C24.5034 29.1231 20.0306 24.6686 20.0306 19.1935Z" fill="#008D66"/>
</svg>
